<mxfile host="Electron" agent="Mozilla/5.0 (Macintosh; Intel Mac OS X 10_15_7) AppleWebKit/537.36 (KHTML, like Gecko) draw.io/26.0.4 Chrome/128.0.6613.186 Electron/32.2.5 Safari/537.36" version="26.0.4">
  <diagram name="Seite-1" id="5-B5eBbplBtXOrpyTVW0">
    <mxGraphModel dx="1122" dy="793" grid="1" gridSize="10" guides="1" tooltips="1" connect="1" arrows="1" fold="1" page="1" pageScale="1" pageWidth="827" pageHeight="1169" math="0" shadow="0">
      <root>
        <mxCell id="0" />
        <mxCell id="1" parent="0" />
        <mxCell id="VOBBg_hOms0FvSOtphgp-38" value="" style="rounded=0;whiteSpace=wrap;html=1;fillColor=#E6E6E6;" vertex="1" parent="1">
          <mxGeometry x="20" y="150" width="880" height="430" as="geometry" />
        </mxCell>
        <mxCell id="VOBBg_hOms0FvSOtphgp-36" value="&lt;font style=&quot;font-size: 16px;&quot;&gt;STEP 3:&lt;/font&gt;&lt;div&gt;Stack the models&lt;/div&gt;&lt;div&gt;(w/ or w/o common training)&lt;/div&gt;" style="rounded=0;whiteSpace=wrap;html=1;fillColor=#FFFFFF;verticalAlign=top;" vertex="1" parent="1">
          <mxGeometry x="680" y="155" width="210" height="420" as="geometry" />
        </mxCell>
        <mxCell id="VOBBg_hOms0FvSOtphgp-35" value="&lt;font style=&quot;font-size: 16px;&quot;&gt;STEP 2:&lt;/font&gt;&lt;div&gt;Asynchronously train models using these Embeddings&lt;/div&gt;" style="rounded=0;whiteSpace=wrap;html=1;fillColor=#FFFFFF;verticalAlign=top;" vertex="1" parent="1">
          <mxGeometry x="280" y="230" width="380" height="270" as="geometry" />
        </mxCell>
        <mxCell id="VOBBg_hOms0FvSOtphgp-34" value="&lt;font style=&quot;font-size: 16px;&quot;&gt;STEP 1:&lt;/font&gt;&lt;div&gt;Train Embedding &amp;amp; LM head (tied weights)&lt;/div&gt;&lt;div&gt;using shallow transformer&lt;/div&gt;" style="rounded=0;whiteSpace=wrap;html=1;fillColor=#FFFFFF;verticalAlign=top;" vertex="1" parent="1">
          <mxGeometry x="30" y="260" width="230" height="210" as="geometry" />
        </mxCell>
        <mxCell id="VOBBg_hOms0FvSOtphgp-28" style="edgeStyle=orthogonalEdgeStyle;rounded=0;orthogonalLoop=1;jettySize=auto;html=1;exitX=0.5;exitY=0;exitDx=0;exitDy=0;entryX=0.5;entryY=1;entryDx=0;entryDy=0;" edge="1" parent="1" source="VOBBg_hOms0FvSOtphgp-1" target="VOBBg_hOms0FvSOtphgp-5">
          <mxGeometry relative="1" as="geometry" />
        </mxCell>
        <mxCell id="VOBBg_hOms0FvSOtphgp-1" value="Embedding" style="rounded=1;whiteSpace=wrap;html=1;fillColor=#CC0000;fontColor=#FFFFFF;" vertex="1" parent="1">
          <mxGeometry x="85" y="430" width="170" height="30" as="geometry" />
        </mxCell>
        <mxCell id="VOBBg_hOms0FvSOtphgp-2" value="LM head" style="rounded=1;whiteSpace=wrap;html=1;fillColor=#CC0000;fontColor=#FFFFFF;" vertex="1" parent="1">
          <mxGeometry x="85" y="320" width="170" height="30" as="geometry" />
        </mxCell>
        <mxCell id="VOBBg_hOms0FvSOtphgp-3" value="" style="endArrow=classic;startArrow=classic;html=1;rounded=0;entryX=0;entryY=0.5;entryDx=0;entryDy=0;exitX=0;exitY=0.5;exitDx=0;exitDy=0;" edge="1" parent="1" source="VOBBg_hOms0FvSOtphgp-1" target="VOBBg_hOms0FvSOtphgp-2">
          <mxGeometry width="50" height="50" relative="1" as="geometry">
            <mxPoint x="190" y="400" as="sourcePoint" />
            <mxPoint x="240" y="350" as="targetPoint" />
            <Array as="points">
              <mxPoint x="40" y="445" />
              <mxPoint x="40" y="335" />
            </Array>
          </mxGeometry>
        </mxCell>
        <mxCell id="VOBBg_hOms0FvSOtphgp-4" value="&lt;font style=&quot;font-size: 16px;&quot;&gt;tied weights&lt;/font&gt;" style="edgeLabel;html=1;align=center;verticalAlign=middle;resizable=0;points=[];rotation=-90;labelBackgroundColor=none;" vertex="1" connectable="0" parent="VOBBg_hOms0FvSOtphgp-3">
          <mxGeometry x="-0.0349" y="-1" relative="1" as="geometry">
            <mxPoint x="9" y="-3" as="offset" />
          </mxGeometry>
        </mxCell>
        <mxCell id="VOBBg_hOms0FvSOtphgp-29" style="edgeStyle=orthogonalEdgeStyle;rounded=0;orthogonalLoop=1;jettySize=auto;html=1;exitX=0.5;exitY=0;exitDx=0;exitDy=0;entryX=0.5;entryY=1;entryDx=0;entryDy=0;" edge="1" parent="1" source="VOBBg_hOms0FvSOtphgp-5" target="VOBBg_hOms0FvSOtphgp-2">
          <mxGeometry relative="1" as="geometry" />
        </mxCell>
        <mxCell id="VOBBg_hOms0FvSOtphgp-5" value="Shallow Transformer" style="rounded=1;whiteSpace=wrap;html=1;fillColor=#4D4D4D;fontColor=#FFFFFF;" vertex="1" parent="1">
          <mxGeometry x="110" y="370" width="120" height="40" as="geometry" />
        </mxCell>
        <mxCell id="VOBBg_hOms0FvSOtphgp-6" value="Embedding" style="rounded=1;whiteSpace=wrap;html=1;fillColor=#009999;fontColor=#FFFFFF;" vertex="1" parent="1">
          <mxGeometry x="295" y="460" width="170" height="30" as="geometry" />
        </mxCell>
        <mxCell id="VOBBg_hOms0FvSOtphgp-7" value="LM head" style="rounded=1;whiteSpace=wrap;html=1;fillColor=#009999;fontColor=#FFFFFF;" vertex="1" parent="1">
          <mxGeometry x="295" y="280" width="170" height="30" as="geometry" />
        </mxCell>
        <mxCell id="VOBBg_hOms0FvSOtphgp-8" value="Transformer 1" style="rounded=1;whiteSpace=wrap;html=1;fillColor=#FF8000;fontColor=#FFFFFF;" vertex="1" parent="1">
          <mxGeometry x="320" y="330" width="120" height="110" as="geometry" />
        </mxCell>
        <mxCell id="VOBBg_hOms0FvSOtphgp-9" value="" style="shape=mxgraph.signs.nature.snowflake;html=1;pointerEvents=1;fillColor=#FFFFFF;strokeColor=none;verticalLabelPosition=bottom;verticalAlign=top;align=center;" vertex="1" parent="1">
          <mxGeometry x="305" y="467.5" width="15" height="15" as="geometry" />
        </mxCell>
        <mxCell id="VOBBg_hOms0FvSOtphgp-10" value="" style="shape=mxgraph.signs.nature.snowflake;html=1;pointerEvents=1;fillColor=#FFFFFF;strokeColor=none;verticalLabelPosition=bottom;verticalAlign=top;align=center;" vertex="1" parent="1">
          <mxGeometry x="305" y="287.5" width="15" height="15" as="geometry" />
        </mxCell>
        <mxCell id="VOBBg_hOms0FvSOtphgp-11" value="Embedding" style="rounded=1;whiteSpace=wrap;html=1;fillColor=#009999;fontColor=#FFFFFF;" vertex="1" parent="1">
          <mxGeometry x="475" y="460" width="170" height="30" as="geometry" />
        </mxCell>
        <mxCell id="VOBBg_hOms0FvSOtphgp-12" value="LM head" style="rounded=1;whiteSpace=wrap;html=1;fillColor=#009999;fontColor=#FFFFFF;" vertex="1" parent="1">
          <mxGeometry x="475" y="280" width="170" height="30" as="geometry" />
        </mxCell>
        <mxCell id="VOBBg_hOms0FvSOtphgp-13" value="Transformer 2" style="rounded=1;whiteSpace=wrap;html=1;fillColor=#990099;fontColor=#FFFFFF;" vertex="1" parent="1">
          <mxGeometry x="500" y="330" width="120" height="110" as="geometry" />
        </mxCell>
        <mxCell id="VOBBg_hOms0FvSOtphgp-14" value="" style="shape=mxgraph.signs.nature.snowflake;html=1;pointerEvents=1;fillColor=#FFFFFF;strokeColor=none;verticalLabelPosition=bottom;verticalAlign=top;align=center;" vertex="1" parent="1">
          <mxGeometry x="485" y="467.5" width="15" height="15" as="geometry" />
        </mxCell>
        <mxCell id="VOBBg_hOms0FvSOtphgp-15" value="" style="shape=mxgraph.signs.nature.snowflake;html=1;pointerEvents=1;fillColor=#FFFFFF;strokeColor=none;verticalLabelPosition=bottom;verticalAlign=top;align=center;" vertex="1" parent="1">
          <mxGeometry x="485" y="287.5" width="15" height="15" as="geometry" />
        </mxCell>
        <mxCell id="VOBBg_hOms0FvSOtphgp-31" style="edgeStyle=orthogonalEdgeStyle;rounded=0;orthogonalLoop=1;jettySize=auto;html=1;exitX=0.5;exitY=0;exitDx=0;exitDy=0;entryX=0.5;entryY=1;entryDx=0;entryDy=0;" edge="1" parent="1" source="VOBBg_hOms0FvSOtphgp-16" target="VOBBg_hOms0FvSOtphgp-18">
          <mxGeometry relative="1" as="geometry" />
        </mxCell>
        <mxCell id="VOBBg_hOms0FvSOtphgp-16" value="Embedding" style="rounded=1;whiteSpace=wrap;html=1;fillColor=#009999;fontColor=#FFFFFF;" vertex="1" parent="1">
          <mxGeometry x="695" y="535" width="170" height="30" as="geometry" />
        </mxCell>
        <mxCell id="VOBBg_hOms0FvSOtphgp-27" style="edgeStyle=orthogonalEdgeStyle;rounded=0;orthogonalLoop=1;jettySize=auto;html=1;exitX=0.5;exitY=0;exitDx=0;exitDy=0;entryX=0.5;entryY=1;entryDx=0;entryDy=0;" edge="1" parent="1" source="VOBBg_hOms0FvSOtphgp-18" target="VOBBg_hOms0FvSOtphgp-23">
          <mxGeometry relative="1" as="geometry" />
        </mxCell>
        <mxCell id="VOBBg_hOms0FvSOtphgp-18" value="Transformer 1" style="rounded=1;whiteSpace=wrap;html=1;fillColor=#FF8000;fontColor=#FFFFFF;" vertex="1" parent="1">
          <mxGeometry x="720" y="405" width="120" height="110" as="geometry" />
        </mxCell>
        <mxCell id="VOBBg_hOms0FvSOtphgp-19" value="" style="shape=mxgraph.signs.nature.snowflake;html=1;pointerEvents=1;fillColor=#FFFFFF;strokeColor=none;verticalLabelPosition=bottom;verticalAlign=top;align=center;" vertex="1" parent="1">
          <mxGeometry x="705" y="542.5" width="15" height="15" as="geometry" />
        </mxCell>
        <mxCell id="VOBBg_hOms0FvSOtphgp-22" value="LM head" style="rounded=1;whiteSpace=wrap;html=1;fillColor=#009999;fontColor=#FFFFFF;" vertex="1" parent="1">
          <mxGeometry x="695" y="225" width="170" height="30" as="geometry" />
        </mxCell>
        <mxCell id="VOBBg_hOms0FvSOtphgp-32" style="edgeStyle=orthogonalEdgeStyle;rounded=0;orthogonalLoop=1;jettySize=auto;html=1;exitX=0.5;exitY=0;exitDx=0;exitDy=0;entryX=0.5;entryY=1;entryDx=0;entryDy=0;" edge="1" parent="1" source="VOBBg_hOms0FvSOtphgp-23" target="VOBBg_hOms0FvSOtphgp-22">
          <mxGeometry relative="1" as="geometry" />
        </mxCell>
        <mxCell id="VOBBg_hOms0FvSOtphgp-23" value="Transformer 2" style="rounded=1;whiteSpace=wrap;html=1;fillColor=#990099;fontColor=#FFFFFF;" vertex="1" parent="1">
          <mxGeometry x="720" y="275" width="120" height="110" as="geometry" />
        </mxCell>
        <mxCell id="VOBBg_hOms0FvSOtphgp-25" value="" style="shape=mxgraph.signs.nature.snowflake;html=1;pointerEvents=1;fillColor=#FFFFFF;strokeColor=none;verticalLabelPosition=bottom;verticalAlign=top;align=center;" vertex="1" parent="1">
          <mxGeometry x="705" y="232.5" width="15" height="15" as="geometry" />
        </mxCell>
      </root>
    </mxGraphModel>
  </diagram>
</mxfile>
